<mxfile host="app.diagrams.net" agent="Mozilla/5.0 (Windows NT 10.0; Win64; x64) AppleWebKit/537.36 (KHTML, like Gecko) Chrome/132.0.0.0 Safari/537.36 OPR/117.0.0.0" version="26.1.1">
  <diagram name="Page-1" id="bF96TFE8hs4x7LZTWJ2N">
    <mxGraphModel dx="1006" dy="585" grid="1" gridSize="10" guides="1" tooltips="1" connect="1" arrows="1" fold="1" page="1" pageScale="1" pageWidth="827" pageHeight="1169" math="0" shadow="0">
      <root>
        <mxCell id="0" />
        <mxCell id="1" parent="0" />
        <mxCell id="Abiv6Rj1oMwlsTEfeYQ6-1" value="" style="rounded=0;whiteSpace=wrap;html=1;fillColor=#d5e8d4;strokeColor=#82b366;" vertex="1" parent="1">
          <mxGeometry x="120" y="40" width="560" height="1080" as="geometry" />
        </mxCell>
        <mxCell id="Abiv6Rj1oMwlsTEfeYQ6-2" value="EcoRide" style="text;strokeColor=none;fillColor=none;html=1;fontSize=24;fontStyle=1;verticalAlign=middle;align=center;" vertex="1" parent="1">
          <mxGeometry x="560" y="60" width="100" height="40" as="geometry" />
        </mxCell>
        <mxCell id="Abiv6Rj1oMwlsTEfeYQ6-3" value="Diagramme" style="text;strokeColor=none;fillColor=none;html=1;fontSize=24;fontStyle=1;verticalAlign=middle;align=center;" vertex="1" parent="1">
          <mxGeometry x="150" y="60" width="100" height="40" as="geometry" />
        </mxCell>
        <mxCell id="Abiv6Rj1oMwlsTEfeYQ6-4" value="Visiteurs" style="shape=umlActor;verticalLabelPosition=bottom;verticalAlign=top;html=1;outlineConnect=0;" vertex="1" parent="1">
          <mxGeometry x="40" y="200" width="30" height="60" as="geometry" />
        </mxCell>
        <mxCell id="Abiv6Rj1oMwlsTEfeYQ6-6" value="Voir les covoiturages" style="ellipse;whiteSpace=wrap;html=1;" vertex="1" parent="1">
          <mxGeometry x="220" y="240" width="120" height="80" as="geometry" />
        </mxCell>
        <mxCell id="Abiv6Rj1oMwlsTEfeYQ6-10" value="" style="endArrow=classic;html=1;rounded=0;entryX=0;entryY=0.5;entryDx=0;entryDy=0;exitX=0.5;exitY=0.5;exitDx=0;exitDy=0;exitPerimeter=0;" edge="1" parent="1" source="Abiv6Rj1oMwlsTEfeYQ6-4" target="Abiv6Rj1oMwlsTEfeYQ6-6">
          <mxGeometry width="50" height="50" relative="1" as="geometry">
            <mxPoint x="390" y="380" as="sourcePoint" />
            <mxPoint x="440" y="330" as="targetPoint" />
          </mxGeometry>
        </mxCell>
        <mxCell id="Abiv6Rj1oMwlsTEfeYQ6-11" value="Filtrer les covoiturages" style="ellipse;whiteSpace=wrap;html=1;" vertex="1" parent="1">
          <mxGeometry x="460" y="240" width="120" height="80" as="geometry" />
        </mxCell>
        <mxCell id="Abiv6Rj1oMwlsTEfeYQ6-12" value="Voir les détails du covoiturages" style="ellipse;whiteSpace=wrap;html=1;" vertex="1" parent="1">
          <mxGeometry x="340" y="340" width="120" height="80" as="geometry" />
        </mxCell>
        <mxCell id="Abiv6Rj1oMwlsTEfeYQ6-30" style="rounded=0;orthogonalLoop=1;jettySize=auto;html=1;exitX=0.5;exitY=0.5;exitDx=0;exitDy=0;exitPerimeter=0;entryX=1;entryY=0.5;entryDx=0;entryDy=0;" edge="1" parent="1" source="Abiv6Rj1oMwlsTEfeYQ6-13" target="Abiv6Rj1oMwlsTEfeYQ6-27">
          <mxGeometry relative="1" as="geometry" />
        </mxCell>
        <mxCell id="Abiv6Rj1oMwlsTEfeYQ6-13" value="Utilisateurs" style="shape=umlActor;verticalLabelPosition=bottom;verticalAlign=top;html=1;outlineConnect=0;" vertex="1" parent="1">
          <mxGeometry x="740" y="200" width="30" height="60" as="geometry" />
        </mxCell>
        <mxCell id="Abiv6Rj1oMwlsTEfeYQ6-14" value="" style="endArrow=classic;html=1;rounded=0;exitX=0.5;exitY=0.5;exitDx=0;exitDy=0;exitPerimeter=0;entryX=1;entryY=0.5;entryDx=0;entryDy=0;" edge="1" parent="1" source="Abiv6Rj1oMwlsTEfeYQ6-13" target="Abiv6Rj1oMwlsTEfeYQ6-12">
          <mxGeometry width="50" height="50" relative="1" as="geometry">
            <mxPoint x="390" y="270" as="sourcePoint" />
            <mxPoint x="440" y="220" as="targetPoint" />
          </mxGeometry>
        </mxCell>
        <mxCell id="Abiv6Rj1oMwlsTEfeYQ6-15" value="" style="endArrow=classic;html=1;rounded=0;exitX=0.5;exitY=0.5;exitDx=0;exitDy=0;exitPerimeter=0;entryX=0;entryY=0.5;entryDx=0;entryDy=0;" edge="1" parent="1" source="Abiv6Rj1oMwlsTEfeYQ6-4" target="Abiv6Rj1oMwlsTEfeYQ6-12">
          <mxGeometry width="50" height="50" relative="1" as="geometry">
            <mxPoint x="390" y="270" as="sourcePoint" />
            <mxPoint x="440" y="220" as="targetPoint" />
          </mxGeometry>
        </mxCell>
        <mxCell id="Abiv6Rj1oMwlsTEfeYQ6-16" value="" style="endArrow=classic;html=1;rounded=0;entryX=1;entryY=0.5;entryDx=0;entryDy=0;exitX=0;exitY=0.5;exitDx=0;exitDy=0;dashed=1;" edge="1" parent="1" source="Abiv6Rj1oMwlsTEfeYQ6-17" target="Abiv6Rj1oMwlsTEfeYQ6-6">
          <mxGeometry width="50" height="50" relative="1" as="geometry">
            <mxPoint x="390" y="270" as="sourcePoint" />
            <mxPoint x="440" y="220" as="targetPoint" />
          </mxGeometry>
        </mxCell>
        <mxCell id="Abiv6Rj1oMwlsTEfeYQ6-18" value="" style="endArrow=none;html=1;rounded=0;entryX=1;entryY=0.5;entryDx=0;entryDy=0;exitX=0;exitY=0.5;exitDx=0;exitDy=0;dashed=1;startFill=0;" edge="1" parent="1" source="Abiv6Rj1oMwlsTEfeYQ6-11" target="Abiv6Rj1oMwlsTEfeYQ6-17">
          <mxGeometry width="50" height="50" relative="1" as="geometry">
            <mxPoint x="430" y="170" as="sourcePoint" />
            <mxPoint x="320" y="170" as="targetPoint" />
          </mxGeometry>
        </mxCell>
        <mxCell id="Abiv6Rj1oMwlsTEfeYQ6-17" value="Extend" style="text;html=1;align=center;verticalAlign=middle;whiteSpace=wrap;rounded=0;" vertex="1" parent="1">
          <mxGeometry x="370" y="265" width="60" height="30" as="geometry" />
        </mxCell>
        <mxCell id="Abiv6Rj1oMwlsTEfeYQ6-19" value="Participer à un covoiturage" style="ellipse;whiteSpace=wrap;html=1;" vertex="1" parent="1">
          <mxGeometry x="340" y="430" width="120" height="80" as="geometry" />
        </mxCell>
        <mxCell id="Abiv6Rj1oMwlsTEfeYQ6-20" value="" style="endArrow=classic;html=1;rounded=0;exitX=0.5;exitY=0.5;exitDx=0;exitDy=0;exitPerimeter=0;entryX=1;entryY=0.5;entryDx=0;entryDy=0;" edge="1" parent="1" source="Abiv6Rj1oMwlsTEfeYQ6-13" target="Abiv6Rj1oMwlsTEfeYQ6-19">
          <mxGeometry width="50" height="50" relative="1" as="geometry">
            <mxPoint x="390" y="270" as="sourcePoint" />
            <mxPoint x="440" y="220" as="targetPoint" />
          </mxGeometry>
        </mxCell>
        <mxCell id="Abiv6Rj1oMwlsTEfeYQ6-21" value="" style="endArrow=classic;html=1;rounded=0;exitX=0.5;exitY=0.5;exitDx=0;exitDy=0;exitPerimeter=0;entryX=0;entryY=0.5;entryDx=0;entryDy=0;" edge="1" parent="1" source="Abiv6Rj1oMwlsTEfeYQ6-4" target="Abiv6Rj1oMwlsTEfeYQ6-19">
          <mxGeometry width="50" height="50" relative="1" as="geometry">
            <mxPoint x="390" y="270" as="sourcePoint" />
            <mxPoint x="440" y="220" as="targetPoint" />
          </mxGeometry>
        </mxCell>
        <mxCell id="Abiv6Rj1oMwlsTEfeYQ6-23" value="Créer un compte" style="ellipse;whiteSpace=wrap;html=1;" vertex="1" parent="1">
          <mxGeometry x="220" y="140" width="120" height="80" as="geometry" />
        </mxCell>
        <mxCell id="Abiv6Rj1oMwlsTEfeYQ6-24" value="" style="endArrow=classic;html=1;rounded=0;exitX=0.5;exitY=0.5;exitDx=0;exitDy=0;exitPerimeter=0;entryX=0;entryY=0.5;entryDx=0;entryDy=0;" edge="1" parent="1" source="Abiv6Rj1oMwlsTEfeYQ6-4" target="Abiv6Rj1oMwlsTEfeYQ6-23">
          <mxGeometry width="50" height="50" relative="1" as="geometry">
            <mxPoint x="390" y="270" as="sourcePoint" />
            <mxPoint x="440" y="220" as="targetPoint" />
          </mxGeometry>
        </mxCell>
        <mxCell id="Abiv6Rj1oMwlsTEfeYQ6-25" value="Gérer son compte utilisateur" style="ellipse;whiteSpace=wrap;html=1;" vertex="1" parent="1">
          <mxGeometry x="460" y="140" width="120" height="80" as="geometry" />
        </mxCell>
        <mxCell id="Abiv6Rj1oMwlsTEfeYQ6-26" value="" style="endArrow=classic;html=1;rounded=0;entryX=1;entryY=0.5;entryDx=0;entryDy=0;exitX=0.5;exitY=0.5;exitDx=0;exitDy=0;exitPerimeter=0;" edge="1" parent="1" source="Abiv6Rj1oMwlsTEfeYQ6-13" target="Abiv6Rj1oMwlsTEfeYQ6-25">
          <mxGeometry width="50" height="50" relative="1" as="geometry">
            <mxPoint x="390" y="300" as="sourcePoint" />
            <mxPoint x="440" y="250" as="targetPoint" />
          </mxGeometry>
        </mxCell>
        <mxCell id="Abiv6Rj1oMwlsTEfeYQ6-27" value="Créer un covoiturage" style="ellipse;whiteSpace=wrap;html=1;" vertex="1" parent="1">
          <mxGeometry x="340" y="520" width="120" height="80" as="geometry" />
        </mxCell>
        <mxCell id="Abiv6Rj1oMwlsTEfeYQ6-28" value="Gérer les covoiturages" style="ellipse;whiteSpace=wrap;html=1;" vertex="1" parent="1">
          <mxGeometry x="340" y="610" width="120" height="80" as="geometry" />
        </mxCell>
        <mxCell id="Abiv6Rj1oMwlsTEfeYQ6-29" value="Mettre un commentaire" style="ellipse;whiteSpace=wrap;html=1;" vertex="1" parent="1">
          <mxGeometry x="340" y="700" width="120" height="80" as="geometry" />
        </mxCell>
        <mxCell id="Abiv6Rj1oMwlsTEfeYQ6-31" value="" style="endArrow=classic;html=1;rounded=0;exitX=0.5;exitY=0.5;exitDx=0;exitDy=0;exitPerimeter=0;entryX=1;entryY=0.5;entryDx=0;entryDy=0;" edge="1" parent="1" source="Abiv6Rj1oMwlsTEfeYQ6-13" target="Abiv6Rj1oMwlsTEfeYQ6-28">
          <mxGeometry width="50" height="50" relative="1" as="geometry">
            <mxPoint x="390" y="520" as="sourcePoint" />
            <mxPoint x="440" y="470" as="targetPoint" />
          </mxGeometry>
        </mxCell>
        <mxCell id="Abiv6Rj1oMwlsTEfeYQ6-32" value="" style="endArrow=classic;html=1;rounded=0;exitX=0.5;exitY=0.5;exitDx=0;exitDy=0;exitPerimeter=0;entryX=1;entryY=0.5;entryDx=0;entryDy=0;" edge="1" parent="1" source="Abiv6Rj1oMwlsTEfeYQ6-13" target="Abiv6Rj1oMwlsTEfeYQ6-29">
          <mxGeometry width="50" height="50" relative="1" as="geometry">
            <mxPoint x="390" y="520" as="sourcePoint" />
            <mxPoint x="440" y="470" as="targetPoint" />
          </mxGeometry>
        </mxCell>
        <mxCell id="Abiv6Rj1oMwlsTEfeYQ6-33" value="Employés" style="shape=umlActor;verticalLabelPosition=bottom;verticalAlign=top;html=1;outlineConnect=0;" vertex="1" parent="1">
          <mxGeometry x="40" y="840" width="30" height="60" as="geometry" />
        </mxCell>
        <mxCell id="Abiv6Rj1oMwlsTEfeYQ6-34" value="Gérer les commentaires" style="ellipse;whiteSpace=wrap;html=1;" vertex="1" parent="1">
          <mxGeometry x="220" y="790" width="120" height="80" as="geometry" />
        </mxCell>
        <mxCell id="Abiv6Rj1oMwlsTEfeYQ6-35" value="Voir les covoiturages" style="ellipse;whiteSpace=wrap;html=1;" vertex="1" parent="1">
          <mxGeometry x="220" y="900" width="120" height="80" as="geometry" />
        </mxCell>
        <mxCell id="Abiv6Rj1oMwlsTEfeYQ6-36" value="" style="endArrow=classic;html=1;rounded=0;exitX=0.5;exitY=0.5;exitDx=0;exitDy=0;exitPerimeter=0;entryX=0;entryY=0.5;entryDx=0;entryDy=0;" edge="1" parent="1" source="Abiv6Rj1oMwlsTEfeYQ6-33" target="Abiv6Rj1oMwlsTEfeYQ6-34">
          <mxGeometry width="50" height="50" relative="1" as="geometry">
            <mxPoint x="390" y="920" as="sourcePoint" />
            <mxPoint x="440" y="870" as="targetPoint" />
          </mxGeometry>
        </mxCell>
        <mxCell id="Abiv6Rj1oMwlsTEfeYQ6-37" value="" style="endArrow=classic;html=1;rounded=0;exitX=0.5;exitY=0.5;exitDx=0;exitDy=0;exitPerimeter=0;entryX=0;entryY=0.5;entryDx=0;entryDy=0;" edge="1" parent="1" source="Abiv6Rj1oMwlsTEfeYQ6-33" target="Abiv6Rj1oMwlsTEfeYQ6-35">
          <mxGeometry width="50" height="50" relative="1" as="geometry">
            <mxPoint x="390" y="920" as="sourcePoint" />
            <mxPoint x="440" y="870" as="targetPoint" />
          </mxGeometry>
        </mxCell>
        <mxCell id="Abiv6Rj1oMwlsTEfeYQ6-38" value="Administrateur" style="shape=umlActor;verticalLabelPosition=bottom;verticalAlign=top;html=1;outlineConnect=0;" vertex="1" parent="1">
          <mxGeometry x="740" y="840" width="30" height="60" as="geometry" />
        </mxCell>
        <mxCell id="Abiv6Rj1oMwlsTEfeYQ6-39" value="Créer compte employés" style="ellipse;whiteSpace=wrap;html=1;" vertex="1" parent="1">
          <mxGeometry x="470" y="790" width="120" height="80" as="geometry" />
        </mxCell>
        <mxCell id="Abiv6Rj1oMwlsTEfeYQ6-40" value="Voir les statistiques des covoiturages" style="ellipse;whiteSpace=wrap;html=1;" vertex="1" parent="1">
          <mxGeometry x="470" y="900" width="120" height="80" as="geometry" />
        </mxCell>
        <mxCell id="Abiv6Rj1oMwlsTEfeYQ6-41" value="Gérer les comptes utilisateurs" style="ellipse;whiteSpace=wrap;html=1;" vertex="1" parent="1">
          <mxGeometry x="470" y="1010" width="120" height="80" as="geometry" />
        </mxCell>
        <mxCell id="Abiv6Rj1oMwlsTEfeYQ6-42" value="" style="endArrow=classic;html=1;rounded=0;exitX=0.5;exitY=0.5;exitDx=0;exitDy=0;exitPerimeter=0;entryX=1;entryY=0.5;entryDx=0;entryDy=0;" edge="1" parent="1" source="Abiv6Rj1oMwlsTEfeYQ6-38" target="Abiv6Rj1oMwlsTEfeYQ6-39">
          <mxGeometry width="50" height="50" relative="1" as="geometry">
            <mxPoint x="390" y="920" as="sourcePoint" />
            <mxPoint x="440" y="870" as="targetPoint" />
          </mxGeometry>
        </mxCell>
        <mxCell id="Abiv6Rj1oMwlsTEfeYQ6-43" value="" style="endArrow=classic;html=1;rounded=0;exitX=0.5;exitY=0.5;exitDx=0;exitDy=0;exitPerimeter=0;entryX=1;entryY=0.5;entryDx=0;entryDy=0;" edge="1" parent="1" source="Abiv6Rj1oMwlsTEfeYQ6-38" target="Abiv6Rj1oMwlsTEfeYQ6-40">
          <mxGeometry width="50" height="50" relative="1" as="geometry">
            <mxPoint x="390" y="920" as="sourcePoint" />
            <mxPoint x="440" y="870" as="targetPoint" />
          </mxGeometry>
        </mxCell>
        <mxCell id="Abiv6Rj1oMwlsTEfeYQ6-44" value="" style="endArrow=classic;html=1;rounded=0;exitX=0.5;exitY=0.5;exitDx=0;exitDy=0;exitPerimeter=0;entryX=1;entryY=0.5;entryDx=0;entryDy=0;" edge="1" parent="1" source="Abiv6Rj1oMwlsTEfeYQ6-38" target="Abiv6Rj1oMwlsTEfeYQ6-41">
          <mxGeometry width="50" height="50" relative="1" as="geometry">
            <mxPoint x="390" y="920" as="sourcePoint" />
            <mxPoint x="440" y="870" as="targetPoint" />
          </mxGeometry>
        </mxCell>
      </root>
    </mxGraphModel>
  </diagram>
</mxfile>
